<?xml version="1.0" encoding="UTF-8" standalone="no"?>
<!DOCTYPE svg PUBLIC "-//W3C//DTD SVG 1.1//EN" "http://www.w3.org/Graphics/SVG/1.1/DTD/svg11.dtd">
<svg version="1.1" xmlns="http://www.w3.org/2000/svg" xmlns:xlink="http://www.w3.org/1999/xlink" preserveAspectRatio="xMidYMid meet" viewBox="0 0 640 640" width="640" height="640"><defs><path d="M329.81 585.12C177.94 585.12 54.64 461.88 54.64 310.09C54.64 158.29 177.94 35.05 329.81 35.05C481.68 35.05 604.98 158.29 604.98 310.09C604.98 461.88 481.68 585.12 329.81 585.12Z" id="cRfw0tucv"></path><path d="M167.43 136.98L161.41 152.24L158.4 168.52L155.39 184.8L157.4 201.08L159.4 217.36L162.41 233.64L164.42 249.92L159.4 265.19L157.4 281.47L169.43 271.29L167.43 287.57L167.43 303.85L161.41 319.12L168.43 333.36L172.44 348.62L168.43 363.89L169.43 380.17L172.44 396.45L175.45 412.73L179.46 427.99L178.46 444.27L185.48 458.52L190.5 473.78L199.52 487.01L202.53 503.29L210.56 517.54L220.59 529.75L231.62 540.94L246.67 547.04L249.67 530.76L238.64 519.57L235.63 503.29L240.65 488.03L246.67 472.76L253.69 458.52L264.72 447.33L280.77 446.31L288.79 460.55L303.84 465.64L313.87 478.87L327.91 485.99L342.96 481.92L351.98 496.17L368.03 499.22L382.07 506.34L398.12 507.36L414.17 507.36L429.22 501.26L444.26 497.19L459.31 501.26L475.36 504.31L491.4 502.27L478.37 512.45L461.31 512.45L445.27 515.5L431.22 507.36L415.17 508.38L417.18 492.1L401.13 490.06L385.08 491.08L374.05 478.87L359 473.78L345.97 464.62L333.93 453.43L320.89 444.27L315.87 429.01L311.86 413.75L313.87 397.47L318.88 382.2L322.9 366.94L335.94 357.78L344.96 344.55L351.98 330.31L360.01 316.06L372.04 305.89L383.08 294.69L398.12 288.59L407.15 275.36L420.19 266.2L431.22 255.01L446.27 248.91L459.31 239.75L468.33 226.52L481.37 216.34L493.41 206.17L510.46 202.1L527.51 198.03L541.56 188.87L550.58 175.64L534.53 172.59L519.49 165.47L504.44 169.54L488.4 165.47L473.35 160.38L458.3 164.45L443.26 171.57L429.22 183.78L417.18 193.96L405.14 205.15L393.11 215.33L380.07 224.48L369.03 235.68L358 247.89L345.97 259.08L331.92 266.2L320.89 277.4L308.85 287.57L296.82 298.77L289.8 313.01L280.77 328.27L273.75 342.52L264.72 356.76L257.7 371.01L248.67 384.24L234.63 392.38L220.59 384.24L217.58 367.96L221.59 352.69L225.6 336.41L230.62 321.15L231.62 304.87L232.62 286.55L235.63 270.27L241.65 255.01L245.66 238.73L245.66 222.45L245.66 206.17L251.68 190.91L255.69 175.64L265.72 163.43L259.7 148.17L247.67 137.99L235.63 127.82L219.58 127.82L204.54 132.91L189.49 136.98L178.46 125.78L163.41 121.71L167.43 136.98Z" id="cysPsdvJT"></path></defs><g><g><g><g><use xlink:href="#cRfw0tucv" opacity="1" fill="#ffffff" fill-opacity="0"></use><g><use xlink:href="#cRfw0tucv" opacity="1" fill-opacity="0" stroke="#000000" stroke-width="1" stroke-opacity="0"></use></g></g><g><use xlink:href="#cysPsdvJT" opacity="1" fill="#ededed" fill-opacity="0.75"></use><g><use xlink:href="#cysPsdvJT" opacity="1" fill-opacity="0" stroke="#000000" stroke-width="1" stroke-opacity="0"></use></g></g></g></g></g></svg>
